<svg width="237px" height="174px" viewBox="0 0 237 174" version="1.1" xmlns="http://www.w3.org/2000/svg" xmlns:xlink="http://www.w3.org/1999/xlink">
    <g id="Symbols" stroke="none" stroke-width="1" fill="none" fill-rule="evenodd">
        <g id="menu" transform="translate(-55.000000, -31.000000)" fill="#000000">
            <g id="Logo" transform="translate(55.000000, 31.000000)">
                <g id="Group-2">
                    <path d="M36.1184374,112.070596 L41.912515,51.3206815 L43.0381267,51.1095725 L44.1637383,51.3173829 L50.4135393,112.070596 L36.1184374,112.070596 Z M22.5255976,0.134169668 L0.376947087,173.175108 L30.2903257,173.175108 L33.2380005,142.265781 L53.5197626,142.265781 L56.6990345,173.175108 L88.3415053,173.175108 L65.2606558,0.134169668 L22.5255976,0.134169668 Z" id="Fill-2"></path>
                    <polygon id="Fill-3" points="168.772185 27.5396645 168.772185 0.134252133 98.7842097 0.134252133 98.7842097 31.9812 133.061409 31.9812 95.580865 153.068707 98.2629087 173.175191 170.647375 173.175191 170.647375 140.863143 133.061409 140.863143"></polygon>
                </g>
                <g id="Group" transform="translate(182.000000, 0.000000)">
                    <polygon id="Fill-4" points="1.32875 154.463676 28.0579167 158.05088 1.32875 161.639733 1.32875 173.174861 54.2170833 173.174861 54.2170833 165.015003 22.9395833 165.015003 53.1429167 160.302159 53.1429167 156.784226 22.9395833 152.142301 54.2170833 152.142301 54.2170833 143.70124 1.32875 143.70124"></polygon>
                    <path d="M11.2104167,109.837459 L13.4845833,109.837459 C18.60375,109.837459 22.6554167,108.782738 26.9204167,104.843411 L32.9629167,99.4263213 C36.0195833,96.6126341 37.5120833,96.4023498 41.20875,96.4023498 L42.20375,96.4023498 C44.7629167,96.4023498 46.0429167,97.1758664 46.0429167,98.7228995 C46.0429167,100.340852 44.97625,101.114369 42.84375,101.114369 L34.3845833,101.114369 L34.3845833,110.330596 L43.9095833,110.330596 C51.01875,110.330596 54.8570833,106.742568 54.8570833,99.638255 L54.8570833,97.8091934 C54.8570833,90.0006341 49.73875,86.4126057 41.7779167,86.4126057 L39.2895833,86.4126057 C34.66875,86.4126057 31.1145833,87.3980559 25.71125,92.1100749 L19.6695833,97.4570701 C17.0395833,99.7784445 15.3329167,100.340852 12.8454167,100.340852 L11.6370833,100.340852 C9.85958333,100.340852 8.79291667,99.9186341 8.79291667,98.3006815 C8.79291667,96.6126341 9.85958333,96.2613355 11.5654167,96.2613355 L18.17625,96.2613355 L18.17625,87.2570417 L11.0679167,87.2570417 C3.95875,87.2570417 0.689583333,90.0006341 0.689583333,97.3160559 L0.689583333,99.2152123 C0.689583333,105.757942 4.38625,109.837459 11.2104167,109.837459" id="Fill-5"></path>
                    <path d="M41.9195833,114.565888 L1.32875,114.565888 L1.32875,124.368438 L42.2745833,124.368438 C44.47625,124.368438 45.5429167,125.085054 45.5445833,126.452315 L45.5445833,126.750011 C45.5445833,128.185718 44.47875,128.903983 42.2745833,128.903983 L1.32875,128.903983 L1.32875,138.706533 L41.9195833,138.706533 C50.7345833,138.706533 54.9995833,134.838125 54.9995833,128.014191 L54.9995833,125.399244 C54.9995833,118.646229 50.7345833,114.565888 41.9195833,114.565888" id="Fill-7"></path>
                    <path d="M41.9195833,34.602745 L1.32875,34.602745 L1.32875,44.4052948 L42.2745833,44.4052948 C44.47625,44.4052948 45.5429167,45.1219109 45.5445833,46.4891716 L45.5445833,46.7868682 C45.5445833,48.2225744 44.47875,48.9408398 42.2745833,48.9408398 L1.32875,48.9408398 L1.32875,58.7433896 L41.9195833,58.7433896 C50.7345833,58.7433896 54.9995833,54.874982 54.9995833,48.0502237 L54.9995833,45.4361005 C54.9995833,38.6830863 50.7345833,34.602745 41.9195833,34.602745" id="Fill-9"></path>
                    <polygon id="Fill-11" points="54.2174167 21.4486749 22.9399167 21.4486749 53.14325 16.7350066 53.14325 13.2178976 22.9399167 8.57514882 54.2174167 8.57514882 54.2174167 0.134087204 1.32908333 0.134087204 1.32908333 10.8965232 28.0574167 14.4845517 1.32908333 18.0725801 1.32908333 29.6085327 54.2174167 29.6085327"></polygon>
                    <polygon id="Fill-13" points="54.2174167 62.7284019 44.6924167 62.7284019 44.6924167 73.0092455 31.68325 73.0092455 31.68325 64.5244777 22.1574167 64.5244777 22.1574167 73.0092455 10.6415833 73.0092455 10.6415833 63.2207147 1.32908333 63.2207147 1.32908333 82.3648379 54.2174167 82.3648379"></polygon>
                </g>
            </g>
        </g>
    </g>
</svg>