<?xml version="1.0" encoding="UTF-8"?>
<svg width="251px" height="6px" viewBox="0 0 251 6" version="1.1" xmlns="http://www.w3.org/2000/svg" xmlns:xlink="http://www.w3.org/1999/xlink">
    <!-- Generator: Sketch 50.2 (55047) - http://www.bohemiancoding.com/sketch -->
    <title>Page 1</title>
    <desc>Created with Sketch.</desc>
    <defs></defs>
    <g id="for_invision" stroke="none" stroke-width="1" fill="none" fill-rule="evenodd">
        <path d="M0,4.00006244 C6.11039446,3.96206244 12.423043,2.60874244 18.5795079,2.61574244 C24.8232641,2.62274244 31.2562438,1.60574244 37.5,1.60574244 L57.5,2.72934783 C60.5624715,2.72934783 63.5078465,2.88574244 66.5,2.61574244 C68.5270991,2.43274244 71.7886191,1.01406244 74,1.00006244 C75.6197395,0.989062441 83.8123672,2.43502101 85.5,2.50002101 C97.7256384,2.96902101 100.713743,1.00006244 113,1.00006244 L136,2.61574244 C139.768077,2.61574244 143.929886,2.10674244 147.697962,2.11574244 C151.737612,2.12574244 154.911855,1.61274244 159,1.60574244 C162.544999,1.59974244 167.525319,2.62034783 171,2.72934783 C174.455283,2.83734783 179.032594,1.88474244 182.5,1.88474244 L200,2.11574244 C209.611747,2.11574244 212.208321,5.27 221.5,4.5 C225.813648,4.143 232.76637,3.236 237,3.5 C238.06447,3.566 243.88946,3.59 245,3.5 C246.571244,3.371 249,3.5 251,3.5" id="Page-1" stroke="#000000"></path>
    </g>
</svg>